<svg xmlns="http://www.w3.org/2000/svg" width="459" height="220" viewBox="0 0 459 220" fill="none">
    <rect x="0.5" y="0.5" width="458" height="219" rx="6" fill="none" stroke="#21262d" stroke-width="1"/>
    <text x="30" y="35" fill="#8b949e" font-size="16" font-weight="600" font-family="-apple-system, BlinkMacSystemFont, Segoe UI, Helvetica, Arial, sans-serif">Peter Benc's GitHub Statistics</text>
    <line x1="30" y1="46" x2="429" y2="46" stroke="#21262d" stroke-width="1"/>
    
        <g transform="translate(30, 68)">
            <svg x="0" y="-6" width="14" height="14" viewBox="0 0 16 16"><path d="M8 0.5l2.45 5.04 5.55 0.77-4.02 3.87 0.98 5.52L8 13.07l-4.96 2.63 0.98-5.52L0 6.31l5.55-0.77z" fill="#8b949e"/></svg>
            <text x="24" y="2" fill="#8b949e" font-size="14" font-family="-apple-system, BlinkMacSystemFont, Segoe UI, Helvetica, Arial, sans-serif" dominant-baseline="middle">Stars</text>
            <text x="399" y="2" fill="#c9d1d9" font-size="14" font-family="-apple-system, BlinkMacSystemFont, Segoe UI, Helvetica, Arial, sans-serif" text-anchor="end" font-weight="bold" dominant-baseline="middle">321</text>
        </g>
        <g transform="translate(30, 98)">
            <svg x="0" y="-6" width="14" height="14" viewBox="0 0 16 16"><circle cx="8" cy="8" r="3" stroke="#8b949e" stroke-width="1.6" fill="none"/><line x1="8" y1="11" x2="8" y2="16" stroke="#8b949e" stroke-width="1.6"/><line x1="8" y1="0" x2="8" y2="5" stroke="#8b949e" stroke-width="1.6"/></svg>
            <text x="24" y="2" fill="#8b949e" font-size="14" font-family="-apple-system, BlinkMacSystemFont, Segoe UI, Helvetica, Arial, sans-serif" dominant-baseline="middle">All-time Contributions</text>
            <text x="399" y="2" fill="#c9d1d9" font-size="14" font-family="-apple-system, BlinkMacSystemFont, Segoe UI, Helvetica, Arial, sans-serif" text-anchor="end" font-weight="bold" dominant-baseline="middle">3,307</text>
        </g>
        <g transform="translate(30, 128)">
            <svg x="0" y="-6" width="14" height="14" viewBox="0 0 16 16"><path d="M10 1l3 3-3 3" stroke="#8b949e" stroke-width="1.6" fill="none" stroke-linecap="round" stroke-linejoin="round"/><path d="M3 2v12M13 4H7a2 2 0 00-2 2v0" stroke="#8b949e" stroke-width="1.6" fill="none" stroke-linecap="round"/></svg>
            <text x="24" y="2" fill="#8b949e" font-size="14" font-family="-apple-system, BlinkMacSystemFont, Segoe UI, Helvetica, Arial, sans-serif" dominant-baseline="middle">Total PRs</text>
            <text x="399" y="2" fill="#c9d1d9" font-size="14" font-family="-apple-system, BlinkMacSystemFont, Segoe UI, Helvetica, Arial, sans-serif" text-anchor="end" font-weight="bold" dominant-baseline="middle">623</text>
        </g>
        <g transform="translate(30, 158)">
            <svg x="0" y="-6" width="14" height="14" viewBox="0 0 16 16"><circle cx="8" cy="8" r="6.5" stroke="#8b949e" stroke-width="1.4" fill="none"/><line x1="8" y1="4.5" x2="8" y2="8.5" stroke="#8b949e" stroke-width="1.8" stroke-linecap="round"/><circle cx="8" cy="11.5" r="1" fill="#8b949e"/></svg>
            <text x="24" y="2" fill="#8b949e" font-size="14" font-family="-apple-system, BlinkMacSystemFont, Segoe UI, Helvetica, Arial, sans-serif" dominant-baseline="middle">Total Issues</text>
            <text x="399" y="2" fill="#c9d1d9" font-size="14" font-family="-apple-system, BlinkMacSystemFont, Segoe UI, Helvetica, Arial, sans-serif" text-anchor="end" font-weight="bold" dominant-baseline="middle">50</text>
        </g>
        <g transform="translate(30, 188)">
            <svg x="0" y="-6" width="14" height="14" viewBox="0 0 16 16"><path d="M5.5 3.5L1 8l4.5 4.5M10.5 3.5L15 8l-4.5 4.5" stroke="#8b949e" stroke-width="1.6" fill="none" stroke-linecap="round" stroke-linejoin="round"/></svg>
            <text x="24" y="2" fill="#8b949e" font-size="14" font-family="-apple-system, BlinkMacSystemFont, Segoe UI, Helvetica, Arial, sans-serif" dominant-baseline="middle">Lines of Code Changed</text>
            <text x="399" y="2" fill="#c9d1d9" font-size="14" font-family="-apple-system, BlinkMacSystemFont, Segoe UI, Helvetica, Arial, sans-serif" text-anchor="end" font-weight="bold" dominant-baseline="middle">594,276</text>
        </g>
</svg>