<svg xmlns="http://www.w3.org/2000/svg" width="380" height="250" viewBox="0 0 380 250" fill="none">
    <rect x="0.5" y="0.5" width="379" height="249" rx="6" fill="none" stroke="#30363d" stroke-width="1"/>
    <text x="30" y="35" fill="white" font-size="16" font-weight="600" font-family="Segoe UI, Ubuntu, -apple-system, sans-serif">Peter Benc's GitHub Statistics</text>
    <line x1="30" y1="46" x2="350" y2="46" stroke="#21262d" stroke-width="1"/>
    
        <g transform="translate(30, 60)">
            <g transform="translate(0, -7)"><path d="M8 0.5l2.45 5.04 5.55 0.77-4.02 3.87 0.98 5.52L8 13.07l-4.96 2.63 0.98-5.52L0 6.31l5.55-0.77z" fill="#8b949e"/></g>
            <text x="24" y="1" fill="#c9d1d9" font-size="14" font-family="Segoe UI, Ubuntu, -apple-system, sans-serif">Stars</text>
            <text x="320" y="1" fill="white" font-size="14" font-family="Segoe UI, Ubuntu, -apple-system, sans-serif" text-anchor="end" font-weight="bold">321</text>
        </g>
        <g transform="translate(30, 94)">
            <g transform="translate(0, -7)"><circle cx="8" cy="8" r="3.5" stroke="#8b949e" stroke-width="1.8" fill="none"/><line x1="8" y1="11.5" x2="8" y2="16" stroke="#8b949e" stroke-width="1.8"/><line x1="8" y1="0" x2="8" y2="4.5" stroke="#8b949e" stroke-width="1.8"/></g>
            <text x="24" y="1" fill="#c9d1d9" font-size="14" font-family="Segoe UI, Ubuntu, -apple-system, sans-serif">Total Commits</text>
            <text x="320" y="1" fill="white" font-size="14" font-family="Segoe UI, Ubuntu, -apple-system, sans-serif" text-anchor="end" font-weight="bold">3.3k</text>
        </g>
        <g transform="translate(30, 128)">
            <g transform="translate(0, -7)"><path d="M4.5 1v6.5a3 3 0 003 3H11" stroke="#8b949e" stroke-width="1.8" fill="none" stroke-linecap="round"/><circle cx="4.5" cy="13" r="2" stroke="#8b949e" stroke-width="1.5" fill="none"/><circle cx="13" cy="10.5" r="2" stroke="#8b949e" stroke-width="1.5" fill="none"/><path d="M4.5 1L2 3.5M4.5 1L7 3.5" stroke="#8b949e" stroke-width="1.8" fill="none" stroke-linecap="round"/></g>
            <text x="24" y="1" fill="#c9d1d9" font-size="14" font-family="Segoe UI, Ubuntu, -apple-system, sans-serif">Total PRs</text>
            <text x="320" y="1" fill="white" font-size="14" font-family="Segoe UI, Ubuntu, -apple-system, sans-serif" text-anchor="end" font-weight="bold">623</text>
        </g>
        <g transform="translate(30, 162)">
            <g transform="translate(0, -7)"><circle cx="8" cy="8" r="7" stroke="#8b949e" stroke-width="1.6" fill="none"/><line x1="8" y1="4" x2="8" y2="9" stroke="#8b949e" stroke-width="2" stroke-linecap="round"/><circle cx="8" cy="12" r="1" fill="#8b949e"/></g>
            <text x="24" y="1" fill="#c9d1d9" font-size="14" font-family="Segoe UI, Ubuntu, -apple-system, sans-serif">Total Issues</text>
            <text x="320" y="1" fill="white" font-size="14" font-family="Segoe UI, Ubuntu, -apple-system, sans-serif" text-anchor="end" font-weight="bold">50</text>
        </g>
        <g transform="translate(30, 196)">
            <g transform="translate(0, -7)"><path d="M5.5 3.5L1 8l4.5 4.5M10.5 3.5L15 8l-4.5 4.5" stroke="#8b949e" stroke-width="1.8" fill="none" stroke-linecap="round" stroke-linejoin="round"/></g>
            <text x="24" y="1" fill="#c9d1d9" font-size="14" font-family="Segoe UI, Ubuntu, -apple-system, sans-serif">Lines of Code Changed</text>
            <text x="320" y="1" fill="white" font-size="14" font-family="Segoe UI, Ubuntu, -apple-system, sans-serif" text-anchor="end" font-weight="bold">504.6k</text>
        </g>
</svg>