<svg xmlns="http://www.w3.org/2000/svg" width="420" height="230" viewBox="0 0 420 230" fill="none">
    <text x="25" y="30" fill="white" font-size="18" font-weight="bold" font-family="Segoe UI, Ubuntu, sans-serif">Peter Benc's GitHub Statistics</text>
    <line x1="25" y1="38" x2="395" y2="38" stroke="rgba(255,255,255,0.2)" stroke-width="1"/>
    
        <g transform="translate(25, 55)">
            <g transform="translate(0, -10)"><path d="M7 0.452l2.146 4.432 4.878 0.674-3.551 3.414 0.866 4.848L7 11.586l-4.339 2.234 0.866-4.848L0 5.558l4.878-0.674z" fill="white"/></g>
            <text x="22" y="0" fill="white" font-size="14" font-family="Segoe UI, Ubuntu, sans-serif">Total Stars Earned:</text>
            <text x="365" y="0" fill="white" font-size="14" font-family="Segoe UI, Ubuntu, sans-serif" text-anchor="end" font-weight="bold">321</text>
        </g>
        <g transform="translate(25, 87)">
            <g transform="translate(0, -10)"><circle cx="7" cy="7" r="3" stroke="white" stroke-width="1.5" fill="none"/><line x1="7" y1="10" x2="7" y2="14" stroke="white" stroke-width="1.5"/></g>
            <text x="22" y="0" fill="white" font-size="14" font-family="Segoe UI, Ubuntu, sans-serif">Total Commits:</text>
            <text x="365" y="0" fill="white" font-size="14" font-family="Segoe UI, Ubuntu, sans-serif" text-anchor="end" font-weight="bold">3.3k</text>
        </g>
        <g transform="translate(25, 119)">
            <g transform="translate(0, -10)"><circle cx="5" cy="4" r="2.5" stroke="white" stroke-width="1.3" fill="none"/><circle cx="9" cy="10" r="2.5" stroke="white" stroke-width="1.3" fill="none"/><line x1="5" y1="6.5" x2="5" y2="14" stroke="white" stroke-width="1.3"/></g>
            <text x="22" y="0" fill="white" font-size="14" font-family="Segoe UI, Ubuntu, sans-serif">Total PRs:</text>
            <text x="365" y="0" fill="white" font-size="14" font-family="Segoe UI, Ubuntu, sans-serif" text-anchor="end" font-weight="bold">623</text>
        </g>
        <g transform="translate(25, 151)">
            <g transform="translate(0, -10)"><circle cx="7" cy="7" r="6" stroke="white" stroke-width="1.3" fill="none"/><line x1="7" y1="4" x2="7" y2="8" stroke="white" stroke-width="1.5"/><circle cx="7" cy="10" r="0.8" fill="white"/></g>
            <text x="22" y="0" fill="white" font-size="14" font-family="Segoe UI, Ubuntu, sans-serif">Total Issues:</text>
            <text x="365" y="0" fill="white" font-size="14" font-family="Segoe UI, Ubuntu, sans-serif" text-anchor="end" font-weight="bold">50</text>
        </g>
        <g transform="translate(25, 183)">
            <g transform="translate(0, -10)"><path d="M5 3L1 7l4 4M9 3l4 4-4 4" stroke="white" stroke-width="1.5" fill="none" stroke-linecap="round" stroke-linejoin="round"/></g>
            <text x="22" y="0" fill="white" font-size="14" font-family="Segoe UI, Ubuntu, sans-serif">Lines of Code Changed:</text>
            <text x="365" y="0" fill="white" font-size="14" font-family="Segoe UI, Ubuntu, sans-serif" text-anchor="end" font-weight="bold">675.3k</text>
        </g>
</svg>