<svg xmlns="http://www.w3.org/2000/svg" width="460" height="220" viewBox="0 0 460 220" fill="none">
    <rect x="0.5" y="0.5" width="459" height="219" rx="6" fill="none" stroke="#30363d" stroke-width="1"/>
    <text x="30" y="35" fill="white" font-size="16" font-weight="600" font-family="Segoe UI, Ubuntu, -apple-system, sans-serif">Peter Benc's GitHub Statistics</text>
    <line x1="30" y1="46" x2="430" y2="46" stroke="#21262d" stroke-width="1"/>
    
        <g transform="translate(30, 60)">
            <svg x="0" y="-8" width="16" height="16" viewBox="0 0 16 16"><path d="M8 0.5l2.45 5.04 5.55 0.77-4.02 3.87 0.98 5.52L8 13.07l-4.96 2.63 0.98-5.52L0 6.31l5.55-0.77z" fill="#8b949e"/></svg>
            <text x="24" y="1" fill="#c9d1d9" font-size="14" font-family="Segoe UI, Ubuntu, -apple-system, sans-serif">Stars</text>
            <text x="400" y="1" fill="white" font-size="14" font-family="Segoe UI, Ubuntu, -apple-system, sans-serif" text-anchor="end" font-weight="bold">321</text>
        </g>
        <g transform="translate(30, 94)">
            <svg x="0" y="-8" width="16" height="16" viewBox="0 0 16 16"><circle cx="8" cy="8" r="3" stroke="#8b949e" stroke-width="1.6" fill="none"/><line x1="8" y1="11" x2="8" y2="16" stroke="#8b949e" stroke-width="1.6"/><line x1="8" y1="0" x2="8" y2="5" stroke="#8b949e" stroke-width="1.6"/></svg>
            <text x="24" y="1" fill="#c9d1d9" font-size="14" font-family="Segoe UI, Ubuntu, -apple-system, sans-serif">All-time Contributions</text>
            <text x="400" y="1" fill="white" font-size="14" font-family="Segoe UI, Ubuntu, -apple-system, sans-serif" text-anchor="end" font-weight="bold">3,303</text>
        </g>
        <g transform="translate(30, 128)">
            <svg x="0" y="-8" width="16" height="16" viewBox="0 0 16 16"><path d="M5 1v7a3 3 0 003 3h2" stroke="#8b949e" stroke-width="1.6" fill="none" stroke-linecap="round"/><circle cx="5" cy="13.5" r="2" stroke="#8b949e" stroke-width="1.4" fill="none"/><circle cx="12" cy="11" r="2" stroke="#8b949e" stroke-width="1.4" fill="none"/><path d="M5 1L3 3M5 1l2 2" stroke="#8b949e" stroke-width="1.6" fill="none" stroke-linecap="round"/></svg>
            <text x="24" y="1" fill="#c9d1d9" font-size="14" font-family="Segoe UI, Ubuntu, -apple-system, sans-serif">Total PRs</text>
            <text x="400" y="1" fill="white" font-size="14" font-family="Segoe UI, Ubuntu, -apple-system, sans-serif" text-anchor="end" font-weight="bold">623</text>
        </g>
        <g transform="translate(30, 162)">
            <svg x="0" y="-8" width="16" height="16" viewBox="0 0 16 16"><path d="M5.5 3.5L1 8l4.5 4.5M10.5 3.5L15 8l-4.5 4.5" stroke="#8b949e" stroke-width="1.6" fill="none" stroke-linecap="round" stroke-linejoin="round"/></svg>
            <text x="24" y="1" fill="#c9d1d9" font-size="14" font-family="Segoe UI, Ubuntu, -apple-system, sans-serif">Lines of Code Changed</text>
            <text x="400" y="1" fill="white" font-size="14" font-family="Segoe UI, Ubuntu, -apple-system, sans-serif" text-anchor="end" font-weight="bold">868,842</text>
        </g>
</svg>