<svg xmlns="http://www.w3.org/2000/svg" width="420" height="212" viewBox="0 0 420 212" fill="none">
    <text x="25" y="30" fill="white" font-size="18" font-weight="bold" font-family="Segoe UI, Ubuntu, sans-serif">Most Used Languages</text>
    <line x1="25" y1="38" x2="395" y2="38" stroke="rgba(255,255,255,0.2)" stroke-width="1"/>
    <rect x="25.0" y="48" width="209.6" height="8" fill="#3178c6"/><rect x="234.6" y="48" width="114.1" height="8" fill="#dea584"/><rect x="348.7" y="48" width="25.6" height="8" fill="#f1e05a"/><rect x="374.2" y="48" width="13.4" height="8" fill="#563d7c"/><rect x="387.7" y="48" width="3.3" height="8" fill="#3572A5"/><rect x="391.0" y="48" width="1.3" height="8" fill="#89e051"/><rect x="392.3" y="48" width="1.0" height="8" fill="#ffffff"/><rect x="393.3" y="48" width="1.0" height="8" fill="#c6538c"/><rect x="394.3" y="48" width="1.0" height="8" fill="#e34c26"/><rect x="395.3" y="48" width="1.0" height="8" fill="#ffffff"/>
    
        <g transform="translate(25.0, 72)">
            <circle cx="6" cy="-4" r="6" fill="#3178c6"/>
            <text x="18" y="0" fill="white" font-size="12" font-family="Segoe UI, Ubuntu, sans-serif">TypeScript 56.66%</text>
        </g>
        <g transform="translate(210.0, 72)">
            <circle cx="6" cy="-4" r="6" fill="#dea584"/>
            <text x="18" y="0" fill="white" font-size="12" font-family="Segoe UI, Ubuntu, sans-serif">Rust 30.82%</text>
        </g>
        <g transform="translate(25.0, 97)">
            <circle cx="6" cy="-4" r="6" fill="#f1e05a"/>
            <text x="18" y="0" fill="white" font-size="12" font-family="Segoe UI, Ubuntu, sans-serif">JavaScript 6.91%</text>
        </g>
        <g transform="translate(210.0, 97)">
            <circle cx="6" cy="-4" r="6" fill="#563d7c"/>
            <text x="18" y="0" fill="white" font-size="12" font-family="Segoe UI, Ubuntu, sans-serif">CSS 3.63%</text>
        </g>
        <g transform="translate(25.0, 122)">
            <circle cx="6" cy="-4" r="6" fill="#3572A5"/>
            <text x="18" y="0" fill="white" font-size="12" font-family="Segoe UI, Ubuntu, sans-serif">Python 0.90%</text>
        </g>
        <g transform="translate(210.0, 122)">
            <circle cx="6" cy="-4" r="6" fill="#89e051"/>
            <text x="18" y="0" fill="white" font-size="12" font-family="Segoe UI, Ubuntu, sans-serif">Shell 0.35%</text>
        </g>
        <g transform="translate(25.0, 147)">
            <circle cx="6" cy="-4" r="6" fill="#ffffff"/>
            <text x="18" y="0" fill="white" font-size="12" font-family="Segoe UI, Ubuntu, sans-serif">Lua 0.25%</text>
        </g>
        <g transform="translate(210.0, 147)">
            <circle cx="6" cy="-4" r="6" fill="#c6538c"/>
            <text x="18" y="0" fill="white" font-size="12" font-family="Segoe UI, Ubuntu, sans-serif">SCSS 0.22%</text>
        </g>
        <g transform="translate(25.0, 172)">
            <circle cx="6" cy="-4" r="6" fill="#e34c26"/>
            <text x="18" y="0" fill="white" font-size="12" font-family="Segoe UI, Ubuntu, sans-serif">HTML 0.15%</text>
        </g>
        <g transform="translate(210.0, 172)">
            <circle cx="6" cy="-4" r="6" fill="#ffffff"/>
            <text x="18" y="0" fill="white" font-size="12" font-family="Segoe UI, Ubuntu, sans-serif">Handlebars 0.11%</text>
        </g>
</svg>