<svg xmlns="http://www.w3.org/2000/svg" width="459" height="220" viewBox="0 0 459 220" fill="none">
    <rect x="0.5" y="0.5" width="458" height="219" rx="6" fill="none" stroke="#21262d" stroke-width="1"/>
    <text x="30" y="35" fill="#8b949e" font-size="16" font-weight="600" font-family="-apple-system, BlinkMacSystemFont, Segoe UI, Helvetica, Arial, sans-serif">Languages Used (By File Size)</text>
    <line x1="30" y1="46" x2="429" y2="46" stroke="#21262d" stroke-width="1"/>
    <clipPath id="barClip"><rect x="30" y="52" width="399" height="8" rx="4"/></clipPath><g clip-path="url(#barClip)"><rect x="30.0" y="52" width="352.4" height="8" fill="#3178c6"/><rect x="382.4" y="52" width="27.5" height="8" fill="#f1e05a"/><rect x="409.9" y="52" width="8.2" height="8" fill="#e34c26"/><rect x="418.1" y="52" width="4.9" height="8" fill="#3572A5"/><rect x="423.0" y="52" width="2.6" height="8" fill="#89e051"/><rect x="425.7" y="52" width="1.5" height="8" fill="#563d7c"/><rect x="427.2" y="52" width="1.1" height="8" fill="#8b949e"/><rect x="428.3" y="52" width="1.0" height="8" fill="#701516"/></g>
    
        <g transform="translate(30.0, 76)">
            <circle cx="5" cy="-3" r="5" fill="#3178c6"/>
            <text x="15" y="0" fill="#8b949e" font-size="12" font-family="-apple-system, BlinkMacSystemFont, Segoe UI, Helvetica, Arial, sans-serif"><tspan font-weight="600" fill="#c9d1d9">TypeScript</tspan> 88.32%</text>
        </g>
        <g transform="translate(229.5, 76)">
            <circle cx="5" cy="-3" r="5" fill="#f1e05a"/>
            <text x="15" y="0" fill="#8b949e" font-size="12" font-family="-apple-system, BlinkMacSystemFont, Segoe UI, Helvetica, Arial, sans-serif"><tspan font-weight="600" fill="#c9d1d9">JavaScript</tspan> 6.90%</text>
        </g>
        <g transform="translate(30.0, 98)">
            <circle cx="5" cy="-3" r="5" fill="#e34c26"/>
            <text x="15" y="0" fill="#8b949e" font-size="12" font-family="-apple-system, BlinkMacSystemFont, Segoe UI, Helvetica, Arial, sans-serif"><tspan font-weight="600" fill="#c9d1d9">HTML</tspan> 2.06%</text>
        </g>
        <g transform="translate(229.5, 98)">
            <circle cx="5" cy="-3" r="5" fill="#3572A5"/>
            <text x="15" y="0" fill="#8b949e" font-size="12" font-family="-apple-system, BlinkMacSystemFont, Segoe UI, Helvetica, Arial, sans-serif"><tspan font-weight="600" fill="#c9d1d9">Python</tspan> 1.22%</text>
        </g>
        <g transform="translate(30.0, 120)">
            <circle cx="5" cy="-3" r="5" fill="#89e051"/>
            <text x="15" y="0" fill="#8b949e" font-size="12" font-family="-apple-system, BlinkMacSystemFont, Segoe UI, Helvetica, Arial, sans-serif"><tspan font-weight="600" fill="#c9d1d9">Shell</tspan> 0.66%</text>
        </g>
        <g transform="translate(229.5, 120)">
            <circle cx="5" cy="-3" r="5" fill="#563d7c"/>
            <text x="15" y="0" fill="#8b949e" font-size="12" font-family="-apple-system, BlinkMacSystemFont, Segoe UI, Helvetica, Arial, sans-serif"><tspan font-weight="600" fill="#c9d1d9">CSS</tspan> 0.38%</text>
        </g>
        <g transform="translate(30.0, 142)">
            <circle cx="5" cy="-3" r="5" fill="#8b949e"/>
            <text x="15" y="0" fill="#8b949e" font-size="12" font-family="-apple-system, BlinkMacSystemFont, Segoe UI, Helvetica, Arial, sans-serif"><tspan font-weight="600" fill="#c9d1d9">Prolog</tspan> 0.28%</text>
        </g>
        <g transform="translate(229.5, 142)">
            <circle cx="5" cy="-3" r="5" fill="#701516"/>
            <text x="15" y="0" fill="#8b949e" font-size="12" font-family="-apple-system, BlinkMacSystemFont, Segoe UI, Helvetica, Arial, sans-serif"><tspan font-weight="600" fill="#c9d1d9">Ruby</tspan> 0.18%</text>
        </g>
</svg>