<svg xmlns="http://www.w3.org/2000/svg" width="380" height="220" viewBox="0 0 380 220" fill="none">
    <rect x="0.5" y="0.5" width="379" height="219" rx="6" fill="none" stroke="#30363d" stroke-width="1"/>
    <text x="30" y="35" fill="white" font-size="16" font-weight="600" font-family="Segoe UI, Ubuntu, -apple-system, sans-serif">Languages Used (By File Size)</text>
    <line x1="30" y1="46" x2="350" y2="46" stroke="#21262d" stroke-width="1"/>
    <clipPath id="barClip"><rect x="30" y="52" width="320" height="8" rx="4"/></clipPath><g clip-path="url(#barClip)"><rect x="30.0" y="52" width="286.9" height="8" fill="#3178c6"/><rect x="316.9" y="52" width="10.6" height="8" fill="#dea584"/><rect x="327.5" y="52" width="7.1" height="8" fill="#4F5D95"/><rect x="334.5" y="52" width="5.1" height="8" fill="#00ef8b"/><rect x="339.6" y="52" width="4.7" height="8" fill="#f1e05a"/><rect x="344.3" y="52" width="2.1" height="8" fill="#e34c26"/><rect x="346.4" y="52" width="1.6" height="8" fill="#563d7c"/><rect x="348.0" y="52" width="1.2" height="8" fill="#8b949e"/><rect x="349.2" y="52" width="1.0" height="8" fill="#3572A5"/><rect x="350.2" y="52" width="1.0" height="8" fill="#89e051"/></g>
    
        <g transform="translate(30.0, 76)">
            <circle cx="5" cy="-3" r="5" fill="#3178c6"/>
            <text x="15" y="0" fill="#c9d1d9" font-size="12" font-family="Segoe UI, Ubuntu, -apple-system, sans-serif"><tspan font-weight="600">TypeScript</tspan> <tspan fill="#8b949e">89.64%</tspan></text>
        </g>
        <g transform="translate(190.0, 76)">
            <circle cx="5" cy="-3" r="5" fill="#dea584"/>
            <text x="15" y="0" fill="#c9d1d9" font-size="12" font-family="Segoe UI, Ubuntu, -apple-system, sans-serif"><tspan font-weight="600">Rust</tspan> <tspan fill="#8b949e">3.31%</tspan></text>
        </g>
        <g transform="translate(30.0, 98)">
            <circle cx="5" cy="-3" r="5" fill="#4F5D95"/>
            <text x="15" y="0" fill="#c9d1d9" font-size="12" font-family="Segoe UI, Ubuntu, -apple-system, sans-serif"><tspan font-weight="600">PHP</tspan> <tspan fill="#8b949e">2.21%</tspan></text>
        </g>
        <g transform="translate(190.0, 98)">
            <circle cx="5" cy="-3" r="5" fill="#00ef8b"/>
            <text x="15" y="0" fill="#c9d1d9" font-size="12" font-family="Segoe UI, Ubuntu, -apple-system, sans-serif"><tspan font-weight="600">Cadence</tspan> <tspan fill="#8b949e">1.59%</tspan></text>
        </g>
        <g transform="translate(30.0, 120)">
            <circle cx="5" cy="-3" r="5" fill="#f1e05a"/>
            <text x="15" y="0" fill="#c9d1d9" font-size="12" font-family="Segoe UI, Ubuntu, -apple-system, sans-serif"><tspan font-weight="600">JavaScript</tspan> <tspan fill="#8b949e">1.46%</tspan></text>
        </g>
        <g transform="translate(190.0, 120)">
            <circle cx="5" cy="-3" r="5" fill="#e34c26"/>
            <text x="15" y="0" fill="#c9d1d9" font-size="12" font-family="Segoe UI, Ubuntu, -apple-system, sans-serif"><tspan font-weight="600">HTML</tspan> <tspan fill="#8b949e">0.67%</tspan></text>
        </g>
        <g transform="translate(30.0, 142)">
            <circle cx="5" cy="-3" r="5" fill="#563d7c"/>
            <text x="15" y="0" fill="#c9d1d9" font-size="12" font-family="Segoe UI, Ubuntu, -apple-system, sans-serif"><tspan font-weight="600">CSS</tspan> <tspan fill="#8b949e">0.49%</tspan></text>
        </g>
        <g transform="translate(190.0, 142)">
            <circle cx="5" cy="-3" r="5" fill="#8b949e"/>
            <text x="15" y="0" fill="#c9d1d9" font-size="12" font-family="Segoe UI, Ubuntu, -apple-system, sans-serif"><tspan font-weight="600">Gherkin</tspan> <tspan fill="#8b949e">0.36%</tspan></text>
        </g>
        <g transform="translate(30.0, 164)">
            <circle cx="5" cy="-3" r="5" fill="#3572A5"/>
            <text x="15" y="0" fill="#c9d1d9" font-size="12" font-family="Segoe UI, Ubuntu, -apple-system, sans-serif"><tspan font-weight="600">Python</tspan> <tspan fill="#8b949e">0.13%</tspan></text>
        </g>
        <g transform="translate(190.0, 164)">
            <circle cx="5" cy="-3" r="5" fill="#89e051"/>
            <text x="15" y="0" fill="#c9d1d9" font-size="12" font-family="Segoe UI, Ubuntu, -apple-system, sans-serif"><tspan font-weight="600">Shell</tspan> <tspan fill="#8b949e">0.12%</tspan></text>
        </g>
</svg>