<svg xmlns="http://www.w3.org/2000/svg" width="459" height="220" viewBox="0 0 459 220" fill="none">
    <rect x="0.5" y="0.5" width="458" height="219" rx="6" fill="none" stroke="#21262d" stroke-width="1"/>
    <text x="30" y="35" fill="#8b949e" font-size="16" font-weight="600" font-family="-apple-system, BlinkMacSystemFont, Segoe UI, Helvetica, Arial, sans-serif">Languages Used (By File Size)</text>
    <line x1="30" y1="46" x2="429" y2="46" stroke="#21262d" stroke-width="1"/>
    <clipPath id="barClip"><rect x="30" y="52" width="399" height="8" rx="4"/></clipPath><g clip-path="url(#barClip)"><rect x="30.0" y="52" width="373.7" height="8" fill="#3178c6"/><rect x="403.7" y="52" width="13.8" height="8" fill="#dea584"/><rect x="417.5" y="52" width="4.7" height="8" fill="#f1e05a"/><rect x="422.2" y="52" width="1.9" height="8" fill="#563d7c"/><rect x="424.2" y="52" width="1.5" height="8" fill="#8b949e"/><rect x="425.7" y="52" width="1.3" height="8" fill="#00ef8b"/><rect x="427.0" y="52" width="1.0" height="8" fill="#e34c26"/><rect x="428.0" y="52" width="1.0" height="8" fill="#89e051"/><rect x="429.0" y="52" width="1.0" height="8" fill="#8b949e"/><rect x="430.0" y="52" width="1.0" height="8" fill="#3572A5"/></g>
    
        <g transform="translate(30.0, 76)">
            <circle cx="5" cy="-3" r="5" fill="#3178c6"/>
            <text x="15" y="0" fill="#8b949e" font-size="12" font-family="-apple-system, BlinkMacSystemFont, Segoe UI, Helvetica, Arial, sans-serif"><tspan font-weight="600" fill="#c9d1d9">TypeScript</tspan> 93.67%</text>
        </g>
        <g transform="translate(229.5, 76)">
            <circle cx="5" cy="-3" r="5" fill="#dea584"/>
            <text x="15" y="0" fill="#8b949e" font-size="12" font-family="-apple-system, BlinkMacSystemFont, Segoe UI, Helvetica, Arial, sans-serif"><tspan font-weight="600" fill="#c9d1d9">Rust</tspan> 3.46%</text>
        </g>
        <g transform="translate(30.0, 98)">
            <circle cx="5" cy="-3" r="5" fill="#f1e05a"/>
            <text x="15" y="0" fill="#8b949e" font-size="12" font-family="-apple-system, BlinkMacSystemFont, Segoe UI, Helvetica, Arial, sans-serif"><tspan font-weight="600" fill="#c9d1d9">JavaScript</tspan> 1.18%</text>
        </g>
        <g transform="translate(229.5, 98)">
            <circle cx="5" cy="-3" r="5" fill="#563d7c"/>
            <text x="15" y="0" fill="#8b949e" font-size="12" font-family="-apple-system, BlinkMacSystemFont, Segoe UI, Helvetica, Arial, sans-serif"><tspan font-weight="600" fill="#c9d1d9">CSS</tspan> 0.49%</text>
        </g>
        <g transform="translate(30.0, 120)">
            <circle cx="5" cy="-3" r="5" fill="#8b949e"/>
            <text x="15" y="0" fill="#8b949e" font-size="12" font-family="-apple-system, BlinkMacSystemFont, Segoe UI, Helvetica, Arial, sans-serif"><tspan font-weight="600" fill="#c9d1d9">Gherkin</tspan> 0.38%</text>
        </g>
        <g transform="translate(229.5, 120)">
            <circle cx="5" cy="-3" r="5" fill="#00ef8b"/>
            <text x="15" y="0" fill="#8b949e" font-size="12" font-family="-apple-system, BlinkMacSystemFont, Segoe UI, Helvetica, Arial, sans-serif"><tspan font-weight="600" fill="#c9d1d9">Cadence</tspan> 0.32%</text>
        </g>
        <g transform="translate(30.0, 142)">
            <circle cx="5" cy="-3" r="5" fill="#e34c26"/>
            <text x="15" y="0" fill="#8b949e" font-size="12" font-family="-apple-system, BlinkMacSystemFont, Segoe UI, Helvetica, Arial, sans-serif"><tspan font-weight="600" fill="#c9d1d9">HTML</tspan> 0.22%</text>
        </g>
        <g transform="translate(229.5, 142)">
            <circle cx="5" cy="-3" r="5" fill="#89e051"/>
            <text x="15" y="0" fill="#8b949e" font-size="12" font-family="-apple-system, BlinkMacSystemFont, Segoe UI, Helvetica, Arial, sans-serif"><tspan font-weight="600" fill="#c9d1d9">Shell</tspan> 0.13%</text>
        </g>
        <g transform="translate(30.0, 164)">
            <circle cx="5" cy="-3" r="5" fill="#8b949e"/>
            <text x="15" y="0" fill="#8b949e" font-size="12" font-family="-apple-system, BlinkMacSystemFont, Segoe UI, Helvetica, Arial, sans-serif"><tspan font-weight="600" fill="#c9d1d9">HCL</tspan> 0.10%</text>
        </g>
        <g transform="translate(229.5, 164)">
            <circle cx="5" cy="-3" r="5" fill="#3572A5"/>
            <text x="15" y="0" fill="#8b949e" font-size="12" font-family="-apple-system, BlinkMacSystemFont, Segoe UI, Helvetica, Arial, sans-serif"><tspan font-weight="600" fill="#c9d1d9">Python</tspan> 0.06%</text>
        </g>
</svg>