<svg xmlns="http://www.w3.org/2000/svg" width="380" height="206" viewBox="0 0 380 206" fill="none">
    <rect x="0.5" y="0.5" width="379" height="205" rx="6" fill="none" stroke="#30363d" stroke-width="1"/>
    <text x="30" y="35" fill="white" font-size="16" font-weight="600" font-family="Segoe UI, Ubuntu, -apple-system, sans-serif">Languages Used (By File Size)</text>
    <line x1="30" y1="46" x2="350" y2="46" stroke="#21262d" stroke-width="1"/>
    <clipPath id="barClip"><rect x="30" y="52" width="320" height="8" rx="4"/></clipPath><g clip-path="url(#barClip)"><rect x="30.0" y="52" width="225.7" height="8" fill="#3178c6"/><rect x="255.7" y="52" width="34.1" height="8" fill="#dea584"/><rect x="289.8" y="52" width="22.7" height="8" fill="#4F5D95"/><rect x="312.5" y="52" width="14.2" height="8" fill="#00ef8b"/><rect x="326.7" y="52" width="10.2" height="8" fill="#f1e05a"/><rect x="336.9" y="52" width="5.6" height="8" fill="#e34c26"/><rect x="342.5" y="52" width="4.8" height="8" fill="#563d7c"/><rect x="347.3" y="52" width="1.1" height="8" fill="#89e051"/><rect x="348.4" y="52" width="1.0" height="8" fill="#8b949e"/><rect x="349.4" y="52" width="1.0" height="8" fill="#41b883"/></g>
    
        <g transform="translate(30.0, 76)">
            <circle cx="5" cy="-3" r="5" fill="#3178c6"/>
            <text x="15" y="0" fill="#c9d1d9" font-size="12" font-family="Segoe UI, Ubuntu, -apple-system, sans-serif"><tspan font-weight="600">TypeScript</tspan> <tspan fill="#8b949e">70.52%</tspan></text>
        </g>
        <g transform="translate(190.0, 76)">
            <circle cx="5" cy="-3" r="5" fill="#dea584"/>
            <text x="15" y="0" fill="#c9d1d9" font-size="12" font-family="Segoe UI, Ubuntu, -apple-system, sans-serif"><tspan font-weight="600">Rust</tspan> <tspan fill="#8b949e">10.66%</tspan></text>
        </g>
        <g transform="translate(30.0, 98)">
            <circle cx="5" cy="-3" r="5" fill="#4F5D95"/>
            <text x="15" y="0" fill="#c9d1d9" font-size="12" font-family="Segoe UI, Ubuntu, -apple-system, sans-serif"><tspan font-weight="600">PHP</tspan> <tspan fill="#8b949e">7.11%</tspan></text>
        </g>
        <g transform="translate(190.0, 98)">
            <circle cx="5" cy="-3" r="5" fill="#00ef8b"/>
            <text x="15" y="0" fill="#c9d1d9" font-size="12" font-family="Segoe UI, Ubuntu, -apple-system, sans-serif"><tspan font-weight="600">Cadence</tspan> <tspan fill="#8b949e">4.44%</tspan></text>
        </g>
        <g transform="translate(30.0, 120)">
            <circle cx="5" cy="-3" r="5" fill="#f1e05a"/>
            <text x="15" y="0" fill="#c9d1d9" font-size="12" font-family="Segoe UI, Ubuntu, -apple-system, sans-serif"><tspan font-weight="600">JavaScript</tspan> <tspan fill="#8b949e">3.18%</tspan></text>
        </g>
        <g transform="translate(190.0, 120)">
            <circle cx="5" cy="-3" r="5" fill="#e34c26"/>
            <text x="15" y="0" fill="#c9d1d9" font-size="12" font-family="Segoe UI, Ubuntu, -apple-system, sans-serif"><tspan font-weight="600">HTML</tspan> <tspan fill="#8b949e">1.76%</tspan></text>
        </g>
        <g transform="translate(30.0, 142)">
            <circle cx="5" cy="-3" r="5" fill="#563d7c"/>
            <text x="15" y="0" fill="#c9d1d9" font-size="12" font-family="Segoe UI, Ubuntu, -apple-system, sans-serif"><tspan font-weight="600">CSS</tspan> <tspan fill="#8b949e">1.49%</tspan></text>
        </g>
        <g transform="translate(190.0, 142)">
            <circle cx="5" cy="-3" r="5" fill="#89e051"/>
            <text x="15" y="0" fill="#c9d1d9" font-size="12" font-family="Segoe UI, Ubuntu, -apple-system, sans-serif"><tspan font-weight="600">Shell</tspan> <tspan fill="#8b949e">0.35%</tspan></text>
        </g>
        <g transform="translate(30.0, 164)">
            <circle cx="5" cy="-3" r="5" fill="#8b949e"/>
            <text x="15" y="0" fill="#c9d1d9" font-size="12" font-family="Segoe UI, Ubuntu, -apple-system, sans-serif"><tspan font-weight="600">HCL</tspan> <tspan fill="#8b949e">0.30%</tspan></text>
        </g>
        <g transform="translate(190.0, 164)">
            <circle cx="5" cy="-3" r="5" fill="#41b883"/>
            <text x="15" y="0" fill="#c9d1d9" font-size="12" font-family="Segoe UI, Ubuntu, -apple-system, sans-serif"><tspan font-weight="600">Vue</tspan> <tspan fill="#8b949e">0.20%</tspan></text>
        </g>
</svg>