<svg xmlns="http://www.w3.org/2000/svg" width="420" height="212" viewBox="0 0 420 212" fill="none">
    <text x="25" y="30" fill="white" font-size="18" font-weight="bold" font-family="Segoe UI, Ubuntu, sans-serif">Most Used Languages</text>
    <line x1="25" y1="38" x2="395" y2="38" stroke="rgba(255,255,255,0.2)" stroke-width="1"/>
    <rect x="25.0" y="48" width="342.7" height="8" fill="#3178c6"/><rect x="367.7" y="48" width="10.5" height="8" fill="#4F5D95"/><rect x="378.2" y="48" width="7.6" height="8" fill="#00ef8b"/><rect x="385.8" y="48" width="3.6" height="8" fill="#f1e05a"/><rect x="389.4" y="48" width="2.6" height="8" fill="#e34c26"/><rect x="392.0" y="48" width="1.7" height="8" fill="#ffffff"/><rect x="393.7" y="48" width="1.0" height="8" fill="#563d7c"/><rect x="394.7" y="48" width="1.0" height="8" fill="#41b883"/><rect x="395.7" y="48" width="1.0" height="8" fill="#f34b7d"/><rect x="396.7" y="48" width="1.0" height="8" fill="#3572A5"/>
    
        <g transform="translate(25.0, 72)">
            <circle cx="6" cy="-4" r="6" fill="#3178c6"/>
            <text x="18" y="0" fill="white" font-size="12" font-family="Segoe UI, Ubuntu, sans-serif">TypeScript 92.63%</text>
        </g>
        <g transform="translate(210.0, 72)">
            <circle cx="6" cy="-4" r="6" fill="#4F5D95"/>
            <text x="18" y="0" fill="white" font-size="12" font-family="Segoe UI, Ubuntu, sans-serif">PHP 2.84%</text>
        </g>
        <g transform="translate(25.0, 97)">
            <circle cx="6" cy="-4" r="6" fill="#00ef8b"/>
            <text x="18" y="0" fill="white" font-size="12" font-family="Segoe UI, Ubuntu, sans-serif">Cadence 2.05%</text>
        </g>
        <g transform="translate(210.0, 97)">
            <circle cx="6" cy="-4" r="6" fill="#f1e05a"/>
            <text x="18" y="0" fill="white" font-size="12" font-family="Segoe UI, Ubuntu, sans-serif">JavaScript 0.98%</text>
        </g>
        <g transform="translate(25.0, 122)">
            <circle cx="6" cy="-4" r="6" fill="#e34c26"/>
            <text x="18" y="0" fill="white" font-size="12" font-family="Segoe UI, Ubuntu, sans-serif">HTML 0.70%</text>
        </g>
        <g transform="translate(210.0, 122)">
            <circle cx="6" cy="-4" r="6" fill="#ffffff"/>
            <text x="18" y="0" fill="white" font-size="12" font-family="Segoe UI, Ubuntu, sans-serif">Gherkin 0.47%</text>
        </g>
        <g transform="translate(25.0, 147)">
            <circle cx="6" cy="-4" r="6" fill="#563d7c"/>
            <text x="18" y="0" fill="white" font-size="12" font-family="Segoe UI, Ubuntu, sans-serif">CSS 0.13%</text>
        </g>
        <g transform="translate(210.0, 147)">
            <circle cx="6" cy="-4" r="6" fill="#41b883"/>
            <text x="18" y="0" fill="white" font-size="12" font-family="Segoe UI, Ubuntu, sans-serif">Vue 0.08%</text>
        </g>
        <g transform="translate(25.0, 172)">
            <circle cx="6" cy="-4" r="6" fill="#f34b7d"/>
            <text x="18" y="0" fill="white" font-size="12" font-family="Segoe UI, Ubuntu, sans-serif">C++ 0.07%</text>
        </g>
        <g transform="translate(210.0, 172)">
            <circle cx="6" cy="-4" r="6" fill="#3572A5"/>
            <text x="18" y="0" fill="white" font-size="12" font-family="Segoe UI, Ubuntu, sans-serif">Python 0.07%</text>
        </g>
</svg>