<svg xmlns="http://www.w3.org/2000/svg" width="460" height="220" viewBox="0 0 460 220" fill="none">
    <rect x="0.5" y="0.5" width="459" height="219" rx="6" fill="none" stroke="#30363d" stroke-width="1"/>
    <text x="30" y="35" fill="white" font-size="16" font-weight="600" font-family="Segoe UI, Ubuntu, -apple-system, sans-serif">Languages Used (By File Size)</text>
    <line x1="30" y1="46" x2="430" y2="46" stroke="#21262d" stroke-width="1"/>
    <clipPath id="barClip"><rect x="30" y="52" width="400" height="8" rx="4"/></clipPath><g clip-path="url(#barClip)"><rect x="30.0" y="52" width="368.8" height="8" fill="#3178c6"/><rect x="398.8" y="52" width="11.2" height="8" fill="#4F5D95"/><rect x="409.9" y="52" width="8.0" height="8" fill="#00ef8b"/><rect x="418.0" y="52" width="5.5" height="8" fill="#f1e05a"/><rect x="423.5" y="52" width="3.2" height="8" fill="#e34c26"/><rect x="426.7" y="52" width="1.8" height="8" fill="#8b949e"/><rect x="428.6" y="52" width="1.0" height="8" fill="#3572A5"/><rect x="429.6" y="52" width="1.0" height="8" fill="#563d7c"/><rect x="430.6" y="52" width="1.0" height="8" fill="#41b883"/><rect x="431.6" y="52" width="1.0" height="8" fill="#f34b7d"/></g>
    
        <g transform="translate(30.0, 76)">
            <circle cx="5" cy="-3" r="5" fill="#3178c6"/>
            <text x="15" y="0" fill="#c9d1d9" font-size="12" font-family="Segoe UI, Ubuntu, -apple-system, sans-serif"><tspan font-weight="600">TypeScript</tspan> <tspan fill="#8b949e">92.19%</tspan></text>
        </g>
        <g transform="translate(230.0, 76)">
            <circle cx="5" cy="-3" r="5" fill="#4F5D95"/>
            <text x="15" y="0" fill="#c9d1d9" font-size="12" font-family="Segoe UI, Ubuntu, -apple-system, sans-serif"><tspan font-weight="600">PHP</tspan> <tspan fill="#8b949e">2.79%</tspan></text>
        </g>
        <g transform="translate(30.0, 98)">
            <circle cx="5" cy="-3" r="5" fill="#00ef8b"/>
            <text x="15" y="0" fill="#c9d1d9" font-size="12" font-family="Segoe UI, Ubuntu, -apple-system, sans-serif"><tspan font-weight="600">Cadence</tspan> <tspan fill="#8b949e">2.01%</tspan></text>
        </g>
        <g transform="translate(230.0, 98)">
            <circle cx="5" cy="-3" r="5" fill="#f1e05a"/>
            <text x="15" y="0" fill="#c9d1d9" font-size="12" font-family="Segoe UI, Ubuntu, -apple-system, sans-serif"><tspan font-weight="600">JavaScript</tspan> <tspan fill="#8b949e">1.39%</tspan></text>
        </g>
        <g transform="translate(30.0, 120)">
            <circle cx="5" cy="-3" r="5" fill="#e34c26"/>
            <text x="15" y="0" fill="#c9d1d9" font-size="12" font-family="Segoe UI, Ubuntu, -apple-system, sans-serif"><tspan font-weight="600">HTML</tspan> <tspan fill="#8b949e">0.80%</tspan></text>
        </g>
        <g transform="translate(230.0, 120)">
            <circle cx="5" cy="-3" r="5" fill="#8b949e"/>
            <text x="15" y="0" fill="#c9d1d9" font-size="12" font-family="Segoe UI, Ubuntu, -apple-system, sans-serif"><tspan font-weight="600">Gherkin</tspan> <tspan fill="#8b949e">0.46%</tspan></text>
        </g>
        <g transform="translate(30.0, 142)">
            <circle cx="5" cy="-3" r="5" fill="#3572A5"/>
            <text x="15" y="0" fill="#c9d1d9" font-size="12" font-family="Segoe UI, Ubuntu, -apple-system, sans-serif"><tspan font-weight="600">Python</tspan> <tspan fill="#8b949e">0.12%</tspan></text>
        </g>
        <g transform="translate(230.0, 142)">
            <circle cx="5" cy="-3" r="5" fill="#563d7c"/>
            <text x="15" y="0" fill="#c9d1d9" font-size="12" font-family="Segoe UI, Ubuntu, -apple-system, sans-serif"><tspan font-weight="600">CSS</tspan> <tspan fill="#8b949e">0.10%</tspan></text>
        </g>
        <g transform="translate(30.0, 164)">
            <circle cx="5" cy="-3" r="5" fill="#41b883"/>
            <text x="15" y="0" fill="#c9d1d9" font-size="12" font-family="Segoe UI, Ubuntu, -apple-system, sans-serif"><tspan font-weight="600">Vue</tspan> <tspan fill="#8b949e">0.08%</tspan></text>
        </g>
        <g transform="translate(230.0, 164)">
            <circle cx="5" cy="-3" r="5" fill="#f34b7d"/>
            <text x="15" y="0" fill="#c9d1d9" font-size="12" font-family="Segoe UI, Ubuntu, -apple-system, sans-serif"><tspan font-weight="600">C++</tspan> <tspan fill="#8b949e">0.07%</tspan></text>
        </g>
</svg>